<svg xmlns="http://www.w3.org/2000/svg" version="1.1" xmlns:xlink="http://www.w3.org/1999/xlink" viewBox="0 0 200 200"><rect width="200" height="200" fill="url('#gradient')"></rect><defs><linearGradient id="gradient" gradientTransform="rotate(49 0.5 0.5)"><stop offset="0%" stop-color="#deae42"></stop><stop offset="100%" stop-color="#1c2e40"></stop></linearGradient></defs><g><g fill="#1c2e40" transform="matrix(5.02191570881226,0,0,5.02191570881226,36.146498477518335,135.68508427002422)" stroke="#b07f37" stroke-width="0.2"><path d="M9.98 0L9.15-2.66L4.45-2.66L3.63 0L-0.03 0L5.19-14.22L8.41-14.22L13.66 0L9.98 0ZM6.80-10.23L5.27-5.30L8.33-5.30L6.80-10.23ZM22.03-3.78L22.03-3.78Q22.03-4.53 21.50-4.95Q20.97-5.37 19.63-5.82Q18.29-6.27 17.44-6.69L17.44-6.69Q14.68-8.05 14.68-10.42L14.68-10.42Q14.68-11.60 15.37-12.50Q16.05-13.41 17.31-13.91Q18.57-14.41 20.15-14.41L20.15-14.41Q21.68-14.41 22.90-13.87Q24.11-13.32 24.79-12.31Q25.46-11.30 25.46-10L25.46-10L22.04-10Q22.04-10.87 21.51-11.35Q20.98-11.83 20.07-11.83L20.07-11.83Q19.15-11.83 18.62-11.42Q18.09-11.02 18.09-10.39L18.09-10.39Q18.09-9.84 18.67-9.40Q19.26-8.96 20.73-8.48Q22.21-8.01 23.15-7.46L23.15-7.46Q25.46-6.13 25.46-3.80L25.46-3.80Q25.46-1.93 24.05-0.87Q22.65 0.20 20.20 0.20L20.20 0.20Q18.47 0.20 17.07-0.42Q15.66-1.04 14.96-2.12Q14.25-3.20 14.25-4.61L14.25-4.61L17.69-4.61Q17.69-3.47 18.28-2.92Q18.87-2.38 20.20-2.38L20.20-2.38Q21.04-2.38 21.54-2.75Q22.03-3.12 22.03-3.78Z"></path></g></g></svg>